<?xml version="1.0" encoding="utf-8"?>
<!-- Generator: Adobe Illustrator 15.1.0, SVG Export Plug-In . SVG Version: 6.00 Build 0)  -->
<!DOCTYPE svg PUBLIC "-//W3C//DTD SVG 1.1//EN" "http://www.w3.org/Graphics/SVG/1.1/DTD/svg11.dtd">
<svg version="1.1"
	 id="svg2985" xmlns:svg="http://www.w3.org/2000/svg" xmlns:rdf="http://www.w3.org/1999/02/22-rdf-syntax-ns#" xmlns:cc="http://creativecommons.org/ns#" xmlns:dc="http://purl.org/dc/elements/1.1/"
	 xmlns="http://www.w3.org/2000/svg" xmlns:xlink="http://www.w3.org/1999/xlink" x="0px" y="0px" width="650px" height="180px"
	 viewBox="0 0 650 180" enable-background="new 0 0 650 180" xml:space="preserve">
<g>
	<g>
		<g>
			<g>
				<rect x="53.517" y="1.94" fill="#1A9FD9" width="25.946" height="64.848"/>
				<rect x="53.517" y="92.731" fill="#1A9FD9" width="25.946" height="64.855"/>
			</g>
			<rect x="1.638" y="1.94" fill="#1A9FD9" width="25.947" height="155.647"/>
		</g>
		<path fill="#E62F2B" d="M183.241,79.762V1.94h-25.941v77.822c0,7.163-5.829,12.971-12.973,12.971
			c-7.188,0-12.972-5.809-12.972-12.971V1.94h-25.946l-0.015,77.822c0,21.542,17.403,38.917,38.933,38.917
			c21.53,0,38.921-17.375,38.921-38.917H183.241z"/>
	</g>
	<g>
		<path fill="#1A9FD9" d="M256.663,66.766V38.761H245.95v28.005h-10.713V1.922h10.713V28.8h10.713V1.922h10.714v64.843H256.663z"/>
		<path fill="#1A9FD9" d="M294.722,67.518c-8.928,0-16.07-5.451-16.07-15.789V17.336c0-10.809,7.142-16.166,16.07-16.166
			c8.928,0,16.07,5.357,16.07,15.79v34.393C310.792,62.067,303.65,67.518,294.722,67.518z M300.078,16.96
			c0-3.571-2.067-5.734-5.356-5.734c-3.29,0-5.357,2.163-5.357,5.734v34.769c0,3.571,2.067,5.639,5.357,5.639
			c3.289,0,5.356-2.067,5.356-5.639V16.96z"/>
		<path fill="#1A9FD9" d="M337.762,67.518c-8.929,0-16.071-5.451-16.071-15.789V17.336c0-10.809,7.142-16.166,16.071-16.166
			c8.928,0,16.07,5.357,16.07,15.79v4.698h-10.714V16.96c0-3.571-2.067-5.734-5.356-5.734c-3.29,0-5.357,2.163-5.357,5.734v34.769
			c0,3.571,2.067,5.639,5.357,5.639c3.289,0,5.356-2.067,5.356-5.639V39.888h-6.015v-9.68h16.729v21.145
			C353.832,62.067,346.69,67.518,337.762,67.518z"/>
		<path fill="#1A9FD9" d="M365.107,66.766V1.922h28.945v9.963h-18.231V28.8h15.412v9.96h-15.412v18.043h18.231v9.962H365.107z"/>
		<path fill="#1A9FD9" d="M418.865,67.518c-9.025,0-16.168-6.11-16.168-14.849v-4.511h10.714v3.571c0,3.947,2.537,5.639,5.454,5.639
			c3.195,0,5.355-2.067,5.355-5.639v-2.255c0-3.195-0.845-5.074-3.288-7.142L408.148,31.62c-2.161-1.787-5.451-6.015-5.451-11.841
			v-3.194c0-9.022,6.391-15.414,16.168-15.414c9.679,0,16.164,6.109,16.164,15.414v4.322H424.22v-4.322
			c0-3.195-2.16-5.358-5.355-5.358c-2.917,0-5.454,2.163-5.454,5.358v2.161c0,2.913,1.128,4.509,3.008,6.108l12.784,10.712
			c3.946,3.288,5.826,6.671,5.826,11.841v5.075C435.029,61.127,427.791,67.518,418.865,67.518z"/>
		<path fill="#1A9FD9" d="M460.869,67.518c-8.927,0-16.069-5.451-16.069-15.789V17.336c0-10.809,7.143-16.166,16.069-16.166
			c8.929,0,16.071,5.357,16.071,15.79v7.141h-10.714V16.96c0-3.571-2.067-5.734-5.357-5.734c-3.288,0-5.355,2.163-5.355,5.734
			v34.769c0,3.571,2.067,5.639,5.355,5.639c3.29,0,5.357-2.067,5.357-5.639v-7.894h10.714v7.518
			C476.941,62.067,469.798,67.518,460.869,67.518z"/>
		<path fill="#1A9FD9" d="M509.643,66.766V38.761h-10.714v28.005h-10.713V1.922h10.713V28.8h10.714V1.922h10.714v64.843H509.643z"/>
		<path fill="#1A9FD9" d="M547.7,67.518c-8.927,0-16.069-5.451-16.069-15.789V17.336c0-10.809,7.143-16.166,16.069-16.166
			c8.929,0,16.071,5.357,16.071,15.79v34.393C563.772,62.067,556.629,67.518,547.7,67.518z M553.059,16.96
			c0-3.571-2.068-5.734-5.358-5.734c-3.288,0-5.355,2.163-5.355,5.734v34.769c0,3.571,2.067,5.639,5.355,5.639
			c3.29,0,5.358-2.067,5.358-5.639V16.96z"/>
		<path fill="#1A9FD9" d="M590.74,67.518c-8.927,0-16.069-5.451-16.069-15.789V17.336c0-10.809,7.143-16.166,16.069-16.166
			c8.929,0,16.071,5.357,16.071,15.79v34.393C606.812,62.067,599.669,67.518,590.74,67.518z M596.098,16.96
			c0-3.571-2.067-5.734-5.357-5.734c-3.288,0-5.355,2.163-5.355,5.734v34.769c0,3.571,2.067,5.639,5.355,5.639
			c3.29,0,5.357-2.067,5.357-5.639V16.96z"/>
		<path fill="#1A9FD9" d="M618.087,66.766V1.922H628.8v54.881h18.232v9.962H618.087z"/>
		<path fill="#E62F2B" d="M251.213,158.333c-8.834,0-15.976-5.45-15.976-15.788V92.739h10.713v49.806
			c0,3.571,2.067,5.639,5.263,5.639c3.29,0,5.451-2.067,5.451-5.639V92.739h10.714v49.43
			C267.377,152.883,260.235,158.333,251.213,158.333z"/>
		<path fill="#E62F2B" d="M297.259,102.324v55.258h-10.713v-55.258h-12.217v-9.585h35.148v9.585H297.259z"/>
		<path fill="#E62F2B" d="M337.668,157.582v-20.111c0-4.697-1.127-7.141-5.732-7.141h-4.98v27.252h-10.714V92.739h16.353
			c10.432,0,15.788,6.015,15.788,16.444v4.606c0,5.639-1.691,9.397-5.356,11.466c3.665,1.879,5.356,5.45,5.356,11.463v20.863
			H337.668z M337.668,109.843c0-4.606-1.127-7.143-5.732-7.143h-4.98v17.668h4.98c4.605,0,5.732-2.631,5.732-7.237V109.843z"/>
		<path fill="#E62F2B" d="M359.657,157.582V92.739h28.945v9.961H370.37v16.917h15.413v9.961H370.37v18.042h18.232v9.962H359.657z"/>
		<path fill="#E62F2B" d="M415.197,158.333c-8.929,0-16.07-5.45-16.07-15.788v-34.394c0-10.809,7.142-16.164,16.07-16.164
			c8.931,0,16.073,5.355,16.073,15.788v7.143h-10.714v-7.143c0-3.571-2.067-5.734-5.359-5.734c-3.29,0-5.357,2.163-5.357,5.734
			v34.77c0,3.571,2.067,5.639,5.357,5.639c3.292,0,5.359-2.067,5.359-5.639v-7.892h10.714v7.516
			C431.27,152.883,424.127,158.333,415.197,158.333z"/>
		<path fill="#E62F2B" d="M463.972,157.582v-28.004h-10.714v28.004h-10.714V92.739h10.714v26.878h10.714V92.739h10.713v64.843
			H463.972z"/>
		<path fill="#E62F2B" d="M504.568,102.324v55.258h-10.713v-55.258h-12.218v-9.585h35.148v9.585H504.568z"/>
	</g>
</g>
</svg>
